<svg version="1.0" xmlns="http://www.w3.org/2000/svg"
 width="64.000000pt" height="64.000000pt" viewBox="0 0 64.000000 64.000000"
 preserveAspectRatio="xMidYMid meet">

<g transform="translate(0.000000,64.000000) scale(0.100000,-0.100000)"
fill="#0de2a5" stroke="none">
<path d="M486 575 c-43 -23 -52 -25 -84 -14 -77 26 -180 7 -247 -44 -24 -18
-11 -37 13 -19 41 30 100 52 141 52 l43 0 -35 -39 c-19 -22 -40 -49 -47 -60
-6 -12 -35 -35 -65 -52 -30 -17 -68 -46 -84 -65 -17 -18 -32 -30 -35 -26 -2 4
0 29 6 56 10 48 4 72 -12 47 -17 -29 -20 -97 -5 -153 14 -55 14 -58 -11 -102
-16 -29 -24 -57 -22 -78 3 -29 7 -33 36 -36 22 -2 48 5 78 23 40 23 49 25 79
15 53 -17 138 -14 187 8 54 23 105 74 129 127 21 45 25 147 8 191 -8 24 -6 37
16 80 35 69 31 108 -10 112 -18 2 -50 -7 -79 -23z m94 -15 c0 -27 -42 -108
-76 -149 -14 -18 -23 -35 -19 -39 4 -4 16 4 27 17 16 21 21 22 29 10 16 -26
10 -67 -13 -83 -12 -9 -19 -19 -15 -23 4 -3 13 -1 19 5 21 21 26 13 18 -24
-15 -68 -61 -126 -120 -156 -59 -29 -110 -43 -110 -31 0 5 34 29 76 55 41 27
73 52 69 57 -3 6 -25 -3 -50 -19 -25 -17 -66 -44 -91 -61 -33 -21 -54 -29 -70
-25 -32 8 -30 16 15 49 54 41 176 165 169 173 -4 3 -31 -18 -60 -48 -152 -154
-318 -252 -318 -188 0 27 42 109 47 93 2 -7 0 -21 -6 -32 -17 -30 -13 -51 8
-51 82 0 441 360 441 442 0 20 -21 23 -51 7 -11 -6 -25 -8 -32 -6 -16 5 62 46
91 47 16 0 22 -6 22 -20z m-160 -27 c0 -3 -7 -14 -16 -24 -9 -10 -13 -22 -9
-28 4 -7 15 -1 28 14 l22 25 30 -24 29 -24 -42 -54 c-48 -62 -222 -234 -266
-263 -28 -19 -29 -19 -47 4 -11 13 -19 26 -19 30 0 19 94 110 120 116 33 7
129 89 118 100 -4 4 -26 -9 -48 -29 -22 -20 -58 -44 -80 -52 -23 -9 -60 -38
-85 -67 -44 -50 -44 -51 -53 -26 -17 43 27 100 120 152 26 15 57 42 69 60 40
58 82 97 106 97 13 0 23 -3 23 -7z m110 -10 c0 -5 -5 -15 -10 -23 -7 -12 -12
-12 -22 -2 -10 10 -10 15 2 22 18 12 30 13 30 3z m-383 -390 c2 -6 -4 -13 -13
-17 -21 -8 -26 -3 -18 18 7 18 25 17 31 -1z"/>
<path d="M451 347 c-6 -8 -8 -17 -4 -20 7 -8 33 11 33 24 0 13 -16 11 -29 -4z"/>
<path d="M480 259 c-7 -11 -9 -24 -5 -27 7 -7 35 25 35 40 0 16 -19 8 -30 -13z"/>
<path d="M370 439 c0 -18 2 -19 15 -9 8 7 15 16 15 21 0 5 -7 9 -15 9 -9 0
-15 -9 -15 -21z"/>
<path d="M205 204 c-27 -24 -43 -44 -35 -44 20 0 106 75 94 82 -5 3 -31 -14
-59 -38z"/>
<path d="M106 464 c-4 -11 -1 -14 11 -12 9 2 18 9 21 16 6 18 -25 15 -32 -4z"/>
</g>
</svg>
